<svg xmlns="http://www.w3.org/2000/svg" width="1200" height="640" viewBox="0 0 1200 640">
<rect width="1200" height="640" rx="28" fill="#091119"/>
<text x="70" y="82" fill="#eef5f6" font-family="Inter,Segoe UI,Arial" font-size="34" font-weight="700">Qwen1.5-7B · story instruction adherence</text>
<text x="70" y="118" fill="#81929a" font-family="Inter,Segoe UI,Arial" font-size="18">Whether Q1 produced the requested 3–4 sentences (1 = yes, 0 = no)</text>
<line x1="110" y1="500" x2="1110" y2="500" stroke="#2b3b44" stroke-width="2"/>
<line x1="110" y1="185" x2="110" y2="500" stroke="#2b3b44" stroke-width="2"/>
<line x1="110" y1="185" x2="1110" y2="185" stroke="#17252d"/>
<text x="76" y="192" fill="#6e7e86" font-family="Consolas,monospace" font-size="14">1</text>
<text x="76" y="505" fill="#6e7e86" font-family="Consolas,monospace" font-size="14">0</text>
<g font-family="Inter,Segoe UI,Arial" font-size="13" text-anchor="middle">
  <rect x="145" y="455" width="70" height="45" rx="8" fill="#ff7e8f"/><text x="180" y="535" fill="#aab7bd">T 0.1</text><text x="180" y="445" fill="#ff9aaa">0</text>
  <rect x="250" y="185" width="70" height="315" rx="8" fill="#58e1cf"/><text x="285" y="535" fill="#aab7bd">T 0.7</text><text x="285" y="173" fill="#8ef0e2">1</text>
  <rect x="355" y="185" width="70" height="315" rx="8" fill="#58e1cf"/><text x="390" y="535" fill="#aab7bd">T 1.2</text><text x="390" y="173" fill="#8ef0e2">1</text>

  <rect x="505" y="185" width="70" height="315" rx="8" fill="#58e1cf"/><text x="540" y="535" fill="#aab7bd">P 0.1</text><text x="540" y="173" fill="#8ef0e2">1</text>
  <rect x="610" y="185" width="70" height="315" rx="8" fill="#58e1cf"/><text x="645" y="535" fill="#aab7bd">P 0.8</text><text x="645" y="173" fill="#8ef0e2">1</text>
  <rect x="715" y="455" width="70" height="45" rx="8" fill="#ff7e8f"/><text x="750" y="535" fill="#aab7bd">P .99</text><text x="750" y="445" fill="#ff9aaa">0</text>

  <rect x="865" y="455" width="70" height="45" rx="8" fill="#ff7e8f"/><text x="900" y="535" fill="#aab7bd">N 64</text><text x="900" y="445" fill="#ff9aaa">0</text>
  <rect x="970" y="185" width="70" height="315" rx="8" fill="#58e1cf"/><text x="1005" y="535" fill="#aab7bd">N 128</text><text x="1005" y="173" fill="#8ef0e2">1</text>
  <rect x="1075" y="185" width="70" height="315" rx="8" fill="#58e1cf"/><text x="1110" y="535" fill="#aab7bd">N 512</text><text x="1110" y="173" fill="#8ef0e2">1</text>
</g>
<text x="70" y="600" fill="#81929a" font-family="Inter,Segoe UI,Arial" font-size="15">T = temperature · P = top_p · N = max_new_tokens · single-seed observation</text>
</svg>